<svg xmlns="http://www.w3.org/2000/svg" width="340" height="171">
  <metadata><generator name="libgsp" author="Mohammad Raziei" site="https://mohammadraziei.github.io/libgsp" /><libgsp version="0.0.0" language="cpp" os="linux"/><content format="svg" tags="plot graph signal bar"/><plotinfo signalscale="100" nodespacescale="100"/></metadata>
  <title>Network</title>
  <style>
    .node { fill: #00BCE3; stroke: black; stroke-width: 0.7; opacity: 0.8}
    .node-label { font-size: 12; text-anchor:middle; dominant-baseline:middle; }    .signal { stroke: red; fill: red; stroke-width: 2;}
    circle.signal { r: 1; }
    .signal-text { fill: red; }
  </style>
  <line class="edge" x1="20" y1="51.0" x2="220" y2="51.0" v1="0" v2="1" weight="1" stroke="black" stroke-width="1.5"/>
  <line class="edge" x1="20" y1="51.0" x2="120" y2="151.0" v1="0" v2="2" weight="1" stroke="black" stroke-width="1.5"/>
  <line class="edge" x1="220" y1="51.0" x2="120" y2="151.0" v1="1" v2="2" weight="1" stroke="black" stroke-width="1.5"/>
  <line class="edge" x1="120" y1="151.0" x2="320" y2="151.0" v1="2" v2="3" weight="1" stroke="black" stroke-width="1.5"/>
  <circle class="node" cx="20" cy="51.0" r="8" sig="-0.04" vx="0" vy="0" vz="0" v="0" name="v0"/>
  <text class="node-label" x="20" y="51.0">v0</text>
  <line class="signal" x1="20" y1="51.0" x2="20" y2="55.0"/>
  <circle class="signal" cx="20" cy="55.0" r="1"/>
  <text class="signal-text" text-anchor="middle" dominant-baseline="middle" font-size="6px" x="20" y="61.0">-0.04</text>
  <circle class="node" cx="220" cy="51.0" r="8" sig="0.31" vx="2" vy="0" vz="0" v="1" name="v1"/>
  <text class="node-label" x="220" y="51.0">v1</text>
  <line class="signal" x1="220" y1="51.0" x2="220" y2="20.0"/>
  <circle class="signal" cx="220" cy="20.0" r="1"/>
  <text class="signal-text" text-anchor="middle" dominant-baseline="middle" font-size="6px" x="220" y="14.0">0.31</text>
  <circle class="node" cx="120" cy="151.0" r="8" sig="0.06" vx="1" vy="-1" vz="0" v="2" name="v2"/>
  <text class="node-label" x="120" y="151.0">v2</text>
  <line class="signal" x1="120" y1="151.0" x2="120" y2="145.0"/>
  <circle class="signal" cx="120" cy="145.0" r="1"/>
  <text class="signal-text" text-anchor="middle" dominant-baseline="middle" font-size="6px" x="120" y="139.0">0.06</text>
  <circle class="node" cx="320" cy="151.0" r="8" sig="0.39" vx="3" vy="-1" vz="0" v="3" name="v3"/>
  <text class="node-label" x="320" y="151.0">v3</text>
  <line class="signal" x1="320" y1="151.0" x2="320" y2="112.0"/>
  <circle class="signal" cx="320" cy="112.0" r="1"/>
  <text class="signal-text" text-anchor="middle" dominant-baseline="middle" font-size="6px" x="320" y="106.0">0.39</text>
</svg>